# xmcd CD database file
#
# Track frame offsets:
#	150
#	14049
#	33054
#	47586
#	72243
#	84083
#	102813
#	113924
#	119418
#	130445
#	164317
#
# Disc length: 2407 seconds
#
# Revision: 0
# Processed by: cddbd v1.4PL0 Copyright (c) Steve Scherf et al.
# Submitted via: CDex 1.40Beta5
#
DISCID=8909650b
DTITLE=Sleepy Greg and the Insomniacs - Hard Life Blues
DYEAR=2002
DGENRE=Blues
TTITLE0=Rockin' My Blues Away
TTITLE1=The Deal
TTITLE2=Slipping Away
TTITLE3=Moving On
TTITLE4=Wide Awake
TTITLE5=Goodbye Baby
TTITLE6=Z Blues
TTITLE7=Life On The Street
TTITLE8=2Wired2Sleep
TTITLE9=Hangin' in Kokomo
TTITLE10=mp3track
EXTD=YEAR: 2002 ID3G:   0
EXTT0=
EXTT1=
EXTT2=
EXTT3=
EXTT4=
EXTT5=
EXTT6=
EXTT7=
EXTT8=
EXTT9=
EXTT10=
PLAYORDER=
